<svg width="204" height="96" viewBox="0 0 204 96" fill="none" xmlns="http://www.w3.org/2000/svg">
<g id="Layer_1" clip-path="url(#clip0_5782_187445)">
<path id="Vector" d="M6.04522 49.5445C6.68481 48.6881 7.30918 47.8165 7.93354 46.9449C8.39039 46.3027 8.84725 45.6451 9.3041 44.9876C9.45638 44.7735 10.2939 43.3055 10.5528 43.3055C12.228 41.2106 14.2533 39.3756 16.4615 37.8618C20.1163 35.2928 24.4564 33.9777 28.8879 33.7178C37.8422 33.1979 46.8422 33.4425 55.8269 33.5496C58.964 33.5801 61.3549 32.6627 63.563 30.3995C69.9285 23.87 76.5224 17.5699 82.9031 11.0558C86.3904 7.49285 90.3498 5.7955 95.3904 5.81079C122.269 5.90254 140.04 5.30617 166.918 5.30617C170.223 5.30617 182.36 7.2329 182.39 6.3307C182.421 5.59671 177.67 3.05832 174.411 1.74325C171.959 0.734012 165.868 2.00684e-05 163.218 2.00684e-05C137.71 -0.0152714 120.289 0.0764775 94.7813 2.00684e-05C88.5833 -0.0152714 83.497 2.12554 79.1721 6.5142C73.4767 12.2944 67.5528 17.8452 61.9945 23.7324C59.2686 26.6225 56.4665 27.9376 52.4005 27.7847C44.1924 27.4941 35.9386 27.5094 27.7305 27.8764C14.8168 28.4728 2.23811 40.1555 0.258414 52.9545C-0.0309263 54.8353 -0.107068 56.0586 0.212728 56.8997C0.167043 56.7926 1.29395 55.6611 1.41577 55.5081C1.8574 54.9882 2.26857 54.453 2.69496 53.9178C3.50207 52.878 4.30918 51.8382 5.10105 50.7831C5.42085 50.3702 5.72542 49.9573 6.02999 49.5292L6.04522 49.5445Z" fill="#4FACB7"/>
<path id="Vector_2" d="M203.787 30.3845C203.422 27.9531 202.508 25.797 200.421 23.9009C200.071 23.5798 199.721 23.2586 199.371 22.9375C199.158 22.754 198.107 21.9894 198.107 21.7295C198.107 31.2714 198.137 35.1401 198.061 44.682C198.046 46.624 197.498 48.5508 197.193 50.4469C196.356 50.401 195.975 50.4622 195.914 50.3552C192.274 43.8104 186.487 42.4036 179.498 42.7859C171.929 43.1835 164.33 42.9541 156.731 42.8623C151.264 42.7859 147.487 45.416 145.356 50.1717C144.335 52.4501 143.056 53.0771 140.757 53.0771C114.823 53.0159 88.9037 53.0312 62.9697 53.0771C60.8377 53.0771 59.589 52.5419 58.6296 50.3705C52.9342 37.4033 33.1525 42.6177 24.9291 49.9882C23.8479 50.9668 25.8733 50.768 26.4063 50.7069C27.6855 50.5693 28.919 50.2023 30.1677 49.8964C33.7311 49.0095 37.4012 48.5355 41.056 48.5049C43.8733 48.4743 47.924 48.1532 50.452 49.6059C53.5433 51.3644 53.6499 56.7164 54.1829 59.7594C54.3657 60.784 55.4164 62.1755 56.2997 62.3896C57.1982 62.6037 59.056 61.8085 59.3454 61.0286C60.2134 58.7349 61.8733 58.949 63.6398 58.949C89.1931 58.949 114.762 58.949 140.315 58.949C142.097 58.949 143.741 58.7961 144.533 61.1204C144.792 61.8544 146.726 62.6189 147.609 62.3743C148.493 62.1296 149.254 60.7075 149.665 59.6524C150 58.7655 149.741 57.6492 149.757 56.6247C149.894 51.288 152.452 48.6731 157.706 48.6425C165.046 48.6119 172.386 48.6425 179.726 48.6425C189.168 48.6425 190.112 49.5141 190.828 58.8419C190.873 59.4689 190.797 60.2488 191.132 60.6922C191.696 61.4415 192.518 62.4507 193.249 62.4813C194.193 62.5119 195.442 61.9002 196.066 61.151C197.848 59.0102 199.66 56.8235 200.924 54.3768C202.218 51.869 203.467 49.0707 203.65 46.3182C203.924 42.3577 203.878 38.3972 203.939 34.4214C203.97 33.0146 203.939 31.6843 203.741 30.4304L203.787 30.3845Z" fill="#4FACB7"/>
<path id="Vector_3" d="M170.36 53.1074C182.284 53.1532 191.649 62.7257 191.543 74.7754C191.436 86.611 182.04 95.9847 170.269 96.0153C158.436 96.0306 148.781 86.3664 148.781 74.5155C148.781 62.634 158.421 53.0921 170.345 53.1227L170.36 53.1074ZM185.68 74.5002C185.68 65.7687 179.04 59.0405 170.375 58.9946C161.634 58.9487 154.522 65.9369 154.553 74.546C154.583 83.0634 161.908 90.281 170.436 90.1892C178.949 90.0975 185.68 83.1551 185.68 74.5002Z" fill="#4FACB7"/>
<path id="Vector_4" d="M33.5026 53.1074C33.396 53.1074 33.3047 53.1227 33.1981 53.1227C32.193 53.612 31.0965 53.9484 29.9239 54.1013C26.7869 54.4989 23.863 55.4623 21.2437 57.0679C15.7006 60.9978 12.1067 67.4661 12.1828 74.7448C12.3199 86.6416 21.9899 96.1223 33.8986 96C45.5483 95.893 55.0508 86.244 55.0508 74.546C55.0508 62.6645 45.396 53.0615 33.5179 53.1227L33.5026 53.1074ZM33.5788 90.2045C24.9899 90.2045 17.8783 82.9258 18.0305 74.3167C18.1828 65.7228 25.0356 58.9946 33.6397 59.0099C42.1981 59.0099 49.0965 65.8146 49.2336 74.3778C49.3706 82.9105 42.1676 90.2045 33.5788 90.2045Z" fill="#4FACB7"/>
<path id="Vector_5" d="M101.452 74.363C88.7969 74.363 76.1573 74.3783 63.5025 74.3477C61.3248 74.3477 58.401 74.9288 58.4923 71.4117C58.5685 68.3993 61.1421 68.5063 63.3197 68.5063C88.6142 68.5063 143.101 70.7083 144.107 71.794C143.041 72.635 142.005 74.1795 140.909 74.2254C135.107 74.4853 129.274 74.363 123.457 74.363C116.117 74.363 108.792 74.363 101.452 74.363Z" fill="#4FACB7"/>
<path id="Vector_6" d="M96.3201 33.702C90.0155 33.702 83.6957 33.8396 77.3911 33.6102C75.8835 33.5491 73.8734 32.6622 73.1272 31.4847C72.6703 30.7813 73.8581 28.5029 74.848 27.4325C78.7921 23.1662 82.7363 18.8387 87.1221 15.0617C89.1322 13.3337 92.1322 12.0798 94.7668 11.9116C101.559 11.4682 108.381 11.7281 115.203 11.7587C120.183 11.7893 122.406 13.8995 122.574 18.8081C122.665 21.4688 122.68 24.1295 122.559 26.7902C122.361 31.1942 120.046 33.5338 115.63 33.6255C109.188 33.7479 102.762 33.6561 96.3201 33.6561V33.7173V33.702ZM116.589 27.6771C116.68 25.4905 116.65 23.7319 116.863 22.004C117.259 18.6552 116.208 17.1872 112.538 17.4471C107.878 17.7683 103.188 17.5389 98.513 17.5389C92.513 17.5389 86.2998 21.8358 83.8784 27.6771H116.589Z" fill="#4FACB7"/>
<path id="Vector_7" d="M170.36 65.9678C175.036 66.0136 178.675 69.7448 178.69 74.4851C178.706 79.3478 174.792 83.3083 170.086 83.2166C165.563 83.1095 161.65 79.1337 161.619 74.5922C161.589 69.8059 165.518 65.9219 170.36 65.9831V65.9678ZM174.015 74.6381C172.279 73.3536 171.228 71.9773 170.33 72.0691C169.325 72.1761 168.457 73.6135 167.543 74.4698C168.411 75.4026 169.188 76.9471 170.178 77.1153C171.061 77.2682 172.203 75.892 174.015 74.6533V74.6381Z" fill="#4FACB7"/>
<path id="Vector_8" d="M33.533 65.968C38.3909 65.9374 42.1828 69.7602 42.1371 74.6382C42.0762 79.2563 38.2538 83.1556 33.7158 83.2168C29.0559 83.2779 25.066 79.1951 25.1117 74.4394C25.1574 69.7297 28.8579 66.0138 33.533 65.9833V65.968ZM33.533 70.6013C32.3452 72.5586 31.1117 73.6749 31.2488 74.5924C31.4011 75.6016 32.8173 76.3968 33.7005 77.2837C34.5381 76.3509 35.9239 75.4793 36.0457 74.47C36.1523 73.5678 34.8427 72.4974 33.5483 70.6013H33.533Z" fill="#4FACB7"/>
</g>
<defs>
<clipPath id="clip0_5782_187445">
<rect width="204" height="96" fill="white"/>
</clipPath>
</defs>
</svg>
